# xmcd CD database file
#
# Track frame offsets:
#	150
#	27451
#	51086
#	80089
#	109932
#	129145
#	155626
#	196812
#	222125
#
# Disc length: 3452 seconds
#
# Revision: 0
# Processed by: cddbd v1.5.1PL2 Copyright (c) Steve Scherf et al.
# Submitted via: CDex 1.50
#
DISCID=770d7a09
DTITLE=Doudou Gouirand - Passages
DYEAR=1999
DGENRE=Jazz
TTITLE0=Samiland
TTITLE1=Clameurs Nomades
TTITLE2=Voix Dans La Nuit
TTITLE3=Hourra Pour mal
TTITLE4=Questions
TTITLE5=Flying-Eagle
TTITLE6=Echos de Granada
TTITLE7=Amazoué-Don
TTITLE8=Chaman
EXTD=YEAR: 1999
EXTT0=
EXTT1=
EXTT2=
EXTT3=
EXTT4=
EXTT5=
EXTT6=
EXTT7=
EXTT8=
PLAYORDER=
